<svg xmlns="http://www.w3.org/2000/svg" width="32" height="32" viewBox="0 0 32 32">
    <g fill="none" fill-rule="evenodd">
        <g>
            <g>
                <g>
                    <g transform="translate(-528.000000, -288.000000) translate(245.000000, 160.000000) translate(0.000000, 104.000000) translate(299.000000, 40.000000) rotate(-270.000000) translate(-299.000000, -40.000000) translate(283.000000, 24.000000)">
                        <circle cx="16" cy="16" r="12.132" fill="#FFF" stroke="#EAEAEA"/>
                        <g fill="#858585" fill-rule="nonzero">
                            <path d="M3.517 0c-.387 0-.701.314-.701.702v8.13l-1.61-1.609C1.03 7.041.77 6.968.525 7.032c-.245.064-.437.256-.501.501s.009.506.191.682l2.807 2.807c.066.065.143.117.228.152.172.072.365.072.536 0 .086-.035.163-.087.229-.152L6.82 8.215c.266-.275.262-.713-.009-.983-.27-.271-.708-.275-.984-.009L4.22 8.833V.701C4.22.314 3.905 0 3.517 0z" transform="translate(8.982456, 10.385965)"/>
                            <path d="M10.535 0c-.388 0-.702.314-.702.702v8.13L8.224 7.223c-.176-.182-.437-.255-.682-.191-.246.064-.437.256-.502.501-.064.245.01.506.192.682l2.807 2.807c.065.065.143.117.228.152.171.072.365.072.536 0 .085-.035.163-.087.228-.152l2.807-2.807c.266-.275.262-.713-.008-.983-.271-.271-.709-.275-.984-.009l-1.61 1.61V.701c0-.388-.313-.702-.701-.702z" transform="translate(8.982456, 10.385965) translate(10.526325, 5.614037) rotate(-180.000000) translate(-10.526325, -5.614037)"/>
                        </g>
                    </g>
                </g>
            </g>
        </g>
    </g>
</svg>
